<svg id="圖層_1" data-name="圖層 1" xmlns="http://www.w3.org/2000/svg" viewBox="0 0 32 32"><defs><style>.cls-1{fill:#fff;}</style></defs><rect class="cls-1" width="32" height="32" rx="5"/><path d="M15.44,28a3.64,3.64,0,0,1-3.69-2.35,17.24,17.24,0,0,1-1.08-4.06c-.65.74-1.09,1.25-1.31,1.52s-.41.41-.59.41-.39-.11-.39-.33a.57.57,0,0,1,.2-.39c.76-.76,1.41-1.46,2-2.09a27.77,27.77,0,0,1-.26-4,19.47,19.47,0,0,1,.39-4A7.92,7.92,0,0,1,12,9.64,2.79,2.79,0,0,1,14.3,8.38c1.11,0,1.67.95,1.67,2.85a12.56,12.56,0,0,1-3,7.55,21.9,21.9,0,0,0,1.15,5.53,4.91,4.91,0,0,0,.8,1.55,1.55,1.55,0,0,0,1.24.51,2.68,2.68,0,0,0,1.8-1.1,12,12,0,0,0,1.85-2.84,21.82,21.82,0,0,0,1.44-4.22,22.34,22.34,0,0,0,.59-5.15,12.55,12.55,0,0,0-.4-3.78,5,5,0,0,0-1.34-2,2.82,2.82,0,0,1-1.24-2.06,1.15,1.15,0,0,1,.41-.86A1.24,1.24,0,0,1,20.15,4,2.56,2.56,0,0,1,22,4.69,3.9,3.9,0,0,1,23,6.55a16.46,16.46,0,0,1,.59,4.51,28.38,28.38,0,0,1-1.26,8.6,17.49,17.49,0,0,1-3.14,6.17A5.17,5.17,0,0,1,15.44,28Zm-.72-16.35c0-1.15-.13-1.73-.39-1.73s-.37.26-.59.78a12,12,0,0,0-.58,2.19,14.63,14.63,0,0,0-.27,2.75c0,.89,0,1.53,0,1.9A11.44,11.44,0,0,0,14.72,11.65Z"/></svg>